<?xml version="1.0" encoding="UTF-8" standalone="no"?>
<!-- Created with Inkscape (http://www.inkscape.org/) -->

<svg
   xmlns:dc="http://purl.org/dc/elements/1.1/"
   xmlns:cc="http://creativecommons.org/ns#"
   xmlns:rdf="http://www.w3.org/1999/02/22-rdf-syntax-ns#"
   xmlns:svg="http://www.w3.org/2000/svg"
   xmlns="http://www.w3.org/2000/svg"
   xmlns:sodipodi="http://sodipodi.sourceforge.net/DTD/sodipodi-0.dtd"
   xmlns:inkscape="http://www.inkscape.org/namespaces/inkscape"
   version="1.1"
   id="svg2"
   xml:space="preserve"
   width="245.77916"
   height="84.461929"
   viewBox="0 0 245.77916 84.461927"
   sodipodi:docname="plain_logo_rbg_cropped.svg"
   inkscape:version="0.92.1 r15371"><metadata
     id="metadata8"><rdf:RDF><cc:Work
         rdf:about=""><dc:format>image/svg+xml</dc:format><dc:type
           rdf:resource="http://purl.org/dc/dcmitype/StillImage" /><dc:title /></cc:Work></rdf:RDF></metadata><defs
     id="defs6"><clipPath
       clipPathUnits="userSpaceOnUse"
       id="clipPath22"><path
         d="m 1220,195 h 775.32 V 774.441 H 1220 Z"
         id="path20"
         inkscape:connector-curvature="0" /></clipPath></defs><sodipodi:namedview
     pagecolor="#ffffff"
     bordercolor="#666666"
     borderopacity="1"
     objecttolerance="10"
     gridtolerance="10"
     guidetolerance="10"
     inkscape:pageopacity="0"
     inkscape:pageshadow="2"
     inkscape:window-width="1920"
     inkscape:window-height="1029"
     id="namedview4"
     showgrid="false"
     inkscape:zoom="4.1944444"
     inkscape:cx="175.92581"
     inkscape:cy="3.7474068"
     inkscape:window-x="0"
     inkscape:window-y="25"
     inkscape:window-maximized="1"
     inkscape:current-layer="g12"
     fit-margin-top="0"
     fit-margin-left="0"
     fit-margin-right="0"
     fit-margin-bottom="0" /><g
     id="g10"
     inkscape:groupmode="layer"
     inkscape:label="ink_ext_XXXXXX"
     transform="matrix(1.3333333,0,0,-1.3333333,-21.548086,103.2588)"><g
       id="g12"
       transform="scale(0.1)"><g
         id="g16"><g
           id="g18"
           clip-path="url(#clipPath22)"><path
             d="m 1278.67,644.953 c 0,14.891 -10.89,22.188 -24.09,22.188 H 1224 v -69.969 h 13.99 v 24.789 h 15.39 c 14.5,0 25.29,6.801 25.29,22.992 m -14.39,-0.301 c 0,-6.101 -3.5,-9.101 -10,-9.101 h -16.29 v 18 h 16.09 c 6.2,0 10.2,-2.797 10.2,-8.899 m 77.76,-47.48 v 13.699 h -36.08 v 16.891 h 20.09 v 13.59 h -20.09 v 12.101 h 34.58 v 13.688 h -48.58 v -69.969 z m 71.57,0 v 69.969 h -13.8 v -29.59 c 0,-3.891 0.2,-12.688 0.2,-15.289 -0.9,1.801 -3.2,5.301 -4.89,7.898 l -24.79,36.981 h -13.4 v -69.969 h 13.8 v 30.789 c 0,3.902 -0.2,12.691 -0.2,15.293 0.9,-1.801 3.2,-5.301 4.89,-7.902 l 25.69,-38.18 z m 74.66,0 v 69.969 h -13.79 v -29.59 c 0,-3.891 0.2,-12.688 0.2,-15.289 -0.9,1.801 -3.2,5.301 -4.9,7.898 l -24.79,36.981 h -13.39 v -69.969 h 13.79 v 30.789 c 0,3.902 -0.2,12.691 -0.2,15.293 0.9,-1.801 3.2,-5.301 4.9,-7.902 l 25.69,-38.18 z m 69.27,21.191 c 0,15.2 -12.29,18.989 -23.39,21.59 -11.09,2.598 -14.09,4 -14.09,8.399 0,3.101 2.5,6.3 9.99,6.3 6.4,0 11.4,-2.601 15.9,-7.199 l 10.09,9.789 c -6.6,6.899 -14.59,11 -25.49,11 -13.79,0 -24.99,-7.801 -24.99,-20.488 0,-13.801 9,-17.891 21.89,-20.891 13.2,-3 15.6,-5 15.6,-9.5 0,-5.293 -3.9,-7.59 -12.2,-7.59 -6.69,0 -12.99,2.297 -17.89,7.989 l -10.09,-8.989 c 5.29,-7.8 15.49,-12.703 27.18,-12.703 19.09,0 27.49,9 27.49,22.293 m 69.77,48.778 h -15.89 l -9.9,-16.59 c -2.6,-4.399 -6.3,-11.098 -7.6,-13.699 -1.3,2.601 -5.09,9.5 -7.59,13.699 l -9.9,16.59 h -16.09 l 26.49,-42.578 v -27.391 h 13.99 v 27.691 z m 60.27,-69.969 v 13.801 h -35.08 v 56.168 h -14 v -69.969 z m 60.26,69.969 h -15.29 l -12.9,-40.481 c -1.3,-4.097 -2.6,-8.898 -3.19,-11.5 -0.6,2.5 -2,7.602 -3.3,11.5 l -13.2,40.481 h -15.49 l 24.89,-69.969 h 13.59 z m 63.86,-69.969 -26.59,69.969 h -13.59 l -26.79,-69.969 h 15 l 5.49,15.59 h 25.59 l 5.5,-15.59 z m -25.69,28.891 h -15.99 l 4.5,12.691 c 1.4,4.098 2.8,8.297 3.5,10.898 0.7,-2.601 2.1,-6.8 3.5,-10.898 z m 95.36,-28.891 v 69.969 h -13.79 v -29.59 c 0,-3.891 0.2,-12.688 0.2,-15.289 -0.9,1.801 -3.2,5.301 -4.9,7.898 l -24.79,36.981 h -13.39 v -69.969 h 13.79 v 30.789 c 0,3.902 -0.2,12.691 -0.2,15.293 0.9,-1.801 3.2,-5.301 4.9,-7.902 l 25.69,-38.18 z m 32.98,69.969 h -13.99 v -69.969 h 13.99 z m 80.97,-69.969 -26.59,69.969 h -13.59 l -26.79,-69.969 h 14.99 l 5.5,15.59 h 25.59 l 5.49,-15.59 z m -25.69,28.891 h -15.99 l 4.49,12.691 c 1.4,4.098 2.8,8.297 3.5,10.898 0.7,-2.601 2.1,-6.8 3.5,-10.898 l 4.5,-12.691"
             style="fill:#a5b5b7;fill-opacity:1;fill-rule:nonzero;stroke:none"
             id="path24"
             inkscape:connector-curvature="0" /><path
             d="m 1298.06,773.344 h -14.39 l -6.1,-34.078 c -0.6,-3.301 -1.4,-8.602 -1.7,-11.5 -0.5,2.898 -1.6,8.097 -2.4,11.5 l -8.29,34.078 h -12.2 l -8.2,-34.078 c -0.8,-3.403 -1.89,-8.602 -2.39,-11.5 -0.3,2.898 -1.1,8.097 -1.7,11.5 l -6.1,34.078 H 1220 l 14.59,-69.969 h 13.09 l 8.8,35.988 c 1,4.09 2,9.391 2.3,11.992 0.4,-2.601 1.4,-7.8 2.4,-11.992 l 8.59,-35.988 h 13.7 z m 64.07,-69.969 v 13.699 h -36.08 v 16.891 h 20.09 v 13.59 h -20.09 v 12.097 h 34.58 v 13.692 h -48.58 v -69.969 z m 64.68,21.188 c 0,15.203 -12.29,18.992 -23.39,21.589 -11.09,2.602 -14.09,4 -14.09,8.403 0,3.097 2.5,6.3 9.99,6.3 6.4,0 11.4,-2.601 15.9,-7.203 l 10.09,9.793 c -6.6,6.899 -14.59,11 -25.49,11 -13.79,0 -24.99,-7.8 -24.99,-20.492 0,-13.789 9,-17.89 21.9,-20.89 13.19,-3 15.59,-5 15.59,-9.5 0,-5.29 -3.9,-7.59 -12.2,-7.59 -6.69,0 -12.99,2.3 -17.89,7.992 l -10.09,-8.992 c 5.29,-7.797 15.49,-12.7 27.18,-12.7 19.1,0 27.49,9 27.49,22.29 m 61.88,34.992 v 13.789 h -54.17 v -13.789 h 20.09 v -56.18 h 13.99 v 56.18 z m 63.57,-56.18 v 13.699 h -36.08 v 16.891 h 20.09 v 13.59 h -20.09 v 12.097 h 34.59 v 13.692 h -48.58 v -69.969 z m 71.57,0 -13.39,27.188 c 8.89,3.5 13.39,10.089 13.39,20.589 0,14.891 -10.89,22.192 -24.09,22.192 h -32.58 v -69.969 h 13.99 v 25.188 h 14.09 l 12.5,-25.188 z m -14.39,47.48 c 0,-6.101 -3.5,-9.101 -10,-9.101 h -18.29 v 18 h 18.29 c 6.2,0 10,-2.602 10,-8.899 m 85.76,-47.48 v 69.969 h -13.8 v -29.59 c 0,-3.891 0.2,-12.691 0.2,-15.289 -0.9,1.801 -3.19,5.301 -4.89,7.898 l -24.79,36.981 h -13.4 v -69.969 h 13.8 v 30.789 c 0,3.899 -0.2,12.691 -0.2,15.289 0.9,-1.801 3.2,-5.301 4.9,-7.898 l 25.68,-38.18 h 12.5"
             style="fill:#a5b5b7;fill-opacity:1;fill-rule:nonzero;stroke:none"
             id="path26"
             inkscape:connector-curvature="0" /><path
             d="m 1304.85,271.391 c -5.93,12.257 -16.71,20.879 -34.49,20.879 -24.65,0 -41.9,-19.942 -41.9,-48.629 0,-29.782 16.57,-48.641 41.23,-48.641 17.11,0 28.42,7.949 34.89,21.289 l -15.9,9.43 c -4.98,-8.36 -9.97,-11.989 -18.45,-11.989 -14.15,0 -22.37,12.93 -22.37,29.911 0,17.507 8.08,29.91 22.23,29.91 8.49,0 13.88,-3.781 17.25,-10.242 z m 86.36,-74.911 v 18.461 h -48.64 v 22.77 h 27.08 v 18.32 h -27.08 v 16.297 h 46.62 v 18.461 h -65.48 V 196.48 Z m 96.46,0 v 94.309 h -18.59 V 250.91 c 0,-5.25 0.27,-17.109 0.27,-20.609 -1.21,2.418 -4.31,7.14 -6.6,10.64 l -33.41,49.848 h -18.06 V 196.48 h 18.59 v 41.5 c 0,5.25 -0.26,17.11 -0.26,20.61 1.21,-2.418 4.31,-7.141 6.6,-10.641 l 34.62,-51.469 z m 91.21,75.719 v 18.59 h -73.02 v -18.59 h 27.08 V 196.48 h 18.86 v 75.719 z m 85.68,-75.719 v 18.461 h -48.63 v 22.77 h 27.08 v 18.32 h -27.08 v 16.297 h 46.61 v 18.461 h -65.47 V 196.48 Z m 96.47,0 -18.06,36.649 c 12,4.711 18.06,13.609 18.06,27.75 0,20.082 -14.69,29.91 -32.47,29.91 h -43.92 V 196.48 h 18.86 v 33.95 h 19 l 16.84,-33.95 z m -19.4,64 c 0,-8.218 -4.72,-12.261 -13.48,-12.261 h -24.65 v 24.25 h 24.65 c 8.36,0 13.48,-3.508 13.48,-11.989"
             style="fill:#e1e1e1;fill-opacity:1;fill-rule:nonzero;stroke:none"
             id="path28"
             inkscape:connector-curvature="0" /><path
             d="m 1309.84,373.75 c 0,34.488 -19.94,47.148 -46.88,47.148 h -29.51 v -94.296 h 28.16 c 24.25,0 48.23,14.007 48.23,47.148 m -19.4,0 c 0,-17.238 -9.03,-28.828 -28.83,-28.828 h -9.3 v 57.656 h 9.97 c 19.94,0 28.16,-9.558 28.16,-28.828 m 117.35,-47.148 -35.84,94.296 h -18.32 l -36.11,-94.296 h 20.21 l 7.41,21.007 h 34.49 l 7.41,-21.007 z m -34.63,38.929 h -21.55 l 6.06,17.11 c 1.89,5.531 3.77,11.179 4.72,14.687 0.94,-3.508 2.83,-9.156 4.71,-14.687 z m 106.31,36.778 v 18.589 h -73.02 v -18.589 h 27.08 v -75.707 h 18.86 v 75.707 z m 88.92,-75.707 -35.84,94.296 h -18.32 l -36.11,-94.296 h 20.21 l 7.41,21.007 h 34.49 l 7.41,-21.007 z m -34.63,38.929 h -21.55 l 6.06,17.11 c 1.89,5.531 3.77,11.179 4.72,14.687 0.94,-3.508 2.83,-9.156 4.71,-14.687 l 6.06,-17.11"
             style="fill:#e1e1e1;fill-opacity:1;fill-rule:nonzero;stroke:none"
             id="path30"
             inkscape:connector-curvature="0" /><path
             d="m 1309.84,456.711 -18.05,36.648 c 11.99,4.711 18.05,13.602 18.05,27.75 0,20.071 -14.69,29.911 -32.47,29.911 h -43.92 v -94.309 h 18.86 v 33.949 h 19 l 16.84,-33.949 z m -19.4,64 c 0,-8.219 -4.72,-12.27 -13.47,-12.27 h -24.66 v 24.258 h 24.66 c 8.35,0 13.47,-3.508 13.47,-11.988 m 106.7,-64 v 18.461 h -48.64 v 22.769 h 27.08 v 18.321 h -27.08 v 16.301 h 46.62 v 18.457 h -65.48 v -94.309 z m 89.6,36.512 v 12.398 h -33.81 v -17.648 h 14.95 c -1.08,-8.223 -5.52,-14.282 -18.46,-14.282 -14.14,0 -22.36,12.789 -22.36,30.168 0,17.524 8.08,29.911 22.23,29.911 10.24,0 14.55,-5.25 18.05,-12.258 l 17.92,7.41 c -6.2,14.551 -16.44,23.578 -35.7,23.578 -24.66,0 -41.9,-19.937 -41.9,-48.641 0,-29.769 16.57,-48.629 41.22,-48.629 21.83,0 37.86,13.743 37.86,37.993 m 40.15,57.797 h -18.86 v -94.309 h 18.86 z M 1630.36,504 c 0,30.449 -16.84,48.5 -41.36,48.5 -24.66,0 -41.77,-18.32 -41.77,-48.77 0,-30.449 16.84,-48.5 41.5,-48.5 24.52,0 41.63,18.321 41.63,48.77 m -19.4,-0.27 c 0,-19.128 -8.76,-29.769 -21.96,-29.769 -13.21,0 -22.37,10.91 -22.37,30.039 0,19.133 8.76,29.77 21.96,29.77 13.21,0 22.37,-10.911 22.37,-30.04 m 114.78,-47.019 v 94.309 h -18.59 v -39.879 c 0,-5.25 0.27,-17.11 0.27,-20.61 -1.21,2.418 -4.31,7.141 -6.6,10.641 l -33.41,49.848 h -18.06 v -94.309 h 18.6 v 41.5 c 0,5.25 -0.27,17.109 -0.27,20.609 1.21,-2.429 4.31,-7.14 6.6,-10.64 l 34.62,-51.469 z m 107.78,0 -35.83,94.309 h -18.33 l -36.1,-94.309 h 20.21 l 7.41,21.019 h 34.49 l 7.41,-21.019 z m -34.62,38.941 h -21.56 l 6.07,17.11 c 1.88,5.519 3.77,11.179 4.71,14.679 0.94,-3.5 2.83,-9.16 4.72,-14.679 z m 118.29,-38.941 v 18.59 h -47.29 v 75.719 h -18.86 v -94.309 h 66.15"
             style="fill:#e1e1e1;fill-opacity:1;fill-rule:nonzero;stroke:none"
             id="path32"
             inkscape:connector-curvature="0" /></g></g><path
         d="m 750.766,380.281 h 30 v 39.5078 h -30 z"
         style="fill:#f69b00;fill-opacity:1;fill-rule:nonzero;stroke:none"
         id="path34"
         inkscape:connector-curvature="0" /><path
         d="m 555.137,310.371 h 30 v 39.9102 h -30 z"
         style="fill:#f69b00;fill-opacity:1;fill-rule:nonzero;stroke:none"
         id="path36"
         inkscape:connector-curvature="0" /><path
         d="m 555.137,242.805 h 30 v 37.5664 h -30 z"
         style="fill:#f69b00;fill-opacity:1;fill-rule:nonzero;stroke:none"
         id="path38"
         inkscape:connector-curvature="0" /><path
         d="m 1131.76,659.125 -128.85,72.285 c 42.73,3.942 85.82,6.262 128.88,6.598 z m -0.19,-487.23 H 973.219 v 40.91 h -30 v -40.91 H 780.766 v 40.91 h -30 v -40.91 H 585.137 v 40.91 h -30 v -40.91 H 394.285 v 40.91 h -30 v -40.91 H 185.023 l 2.36,2.238 c 1.738,1.648 68.336,64.09 176.902,141.328 v -5.09 h 30 v 26.055 c 47.457,32.562 101.559,66.894 160.852,99.902 v -56.047 h 30 v 72.387 c 51.992,27.691 107.519,54.012 165.629,77.012 v -79.891 h 30 v 91.371 c 52.472,19.406 106.855,35.91 162.453,48.133 v -69.66 h 30 v 75.805 c 52.091,9.906 105.081,15.875 158.521,16.828 z M 192.055,471.809 352.914,343.988 C 278.152,291.23 222.246,244.805 192.055,218.555 Z m 172.23,98.675 V 373.27 L 203.516,501.016 c 27.933,13.394 84.351,39.41 160.769,69.468 z m 30,-13.613 148.278,-93.473 C 488.594,433.441 438.785,402.375 394.285,372.48 Z m 160.852,80.945 V 490.934 L 404.449,585.93 c 45.168,16.984 95.864,34.746 150.688,51.886 z m 30,-9.105 142.445,-76.238 c -49.613,-20.164 -97.285,-42.61 -142.445,-66.16 z m 165.629,61.918 V 574.094 l -146.7,78.508 c 46.653,13.609 95.813,26.539 146.7,38.027 z m 30,-8.512 L 916.27,613.77 C 870.066,602.68 824.766,588.801 780.766,572.895 Z m 162.453,42.738 v -91.082 l -136.34,68.77 c 44.516,8.848 90.133,16.445 136.34,22.312 z m 30,-11.187 129.051,-72.398 c -43.43,-2.2 -86.58,-7.516 -129.051,-15.379 z m 156.661,56.391 C 652.246,766.375 175.012,520.559 170.191,518.07 l -8.136,-4.183 0.133,-371.992 999.512,-0.204 0.1,628.25 -31.92,0.118"
         style="fill:#f69b00;fill-opacity:1;fill-rule:nonzero;stroke:none"
         id="path40"
         inkscape:connector-curvature="0" /><path
         d="m 943.219,242.805 h 30 v 37.5664 h -30 z"
         style="fill:#f69b00;fill-opacity:1;fill-rule:nonzero;stroke:none"
         id="path42"
         inkscape:connector-curvature="0" /><path
         d="m 750.766,242.805 h 30 v 37.5664 h -30 z"
         style="fill:#f69b00;fill-opacity:1;fill-rule:nonzero;stroke:none"
         id="path44"
         inkscape:connector-curvature="0" /><path
         d="m 364.285,242.805 h 30 v 37.5664 h -30 z"
         style="fill:#f69b00;fill-opacity:1;fill-rule:nonzero;stroke:none"
         id="path46"
         inkscape:connector-curvature="0" /><path
         d="m 750.766,310.371 h 30 v 39.9102 h -30 z"
         style="fill:#f69b00;fill-opacity:1;fill-rule:nonzero;stroke:none"
         id="path48"
         inkscape:connector-curvature="0" /><path
         d="m 943.219,310.371 h 30 v 39.9102 h -30 z"
         style="fill:#f69b00;fill-opacity:1;fill-rule:nonzero;stroke:none"
         id="path50"
         inkscape:connector-curvature="0" /><path
         d="m 943.219,380.281 h 30 v 39.5078 h -30 z"
         style="fill:#f69b00;fill-opacity:1;fill-rule:nonzero;stroke:none"
         id="path52"
         inkscape:connector-curvature="0" /><path
         d="m 943.219,449.789 h 30 v 39.8438 h -30 z"
         style="fill:#f69b00;fill-opacity:1;fill-rule:nonzero;stroke:none"
         id="path54"
         inkscape:connector-curvature="0" /></g></g></svg>